<?xml version="1.0" standalone="no"?>
<!DOCTYPE svg PUBLIC "-//W3C//DTD SVG 20010904//EN"
 "http://www.w3.org/TR/2001/REC-SVG-20010904/DTD/svg10.dtd">
<svg version="1.0" xmlns="http://www.w3.org/2000/svg"
 width="326.000000pt" height="326.000000pt" viewBox="0 0 326.000000 326.000000"
 preserveAspectRatio="xMidYMid meet">
<metadata>
Created by potrace 1.16, written by Peter Selinger 2001-2019
</metadata>
<g transform="translate(0.000000,326.000000) scale(0.100000,-0.100000)"
fill="#000000" stroke="none">
<path d="M2118 2984 c-32 -73 -71 -335 -84 -562 l-7 -123 34 6 c19 3 41 13 49
21 13 13 13 16 -2 25 -31 18 -19 37 46 76 35 21 74 53 86 70 14 21 31 33 45
33 37 0 48 -23 40 -86 -5 -45 -14 -64 -43 -96 -20 -23 -51 -62 -67 -87 -40
-62 -72 -66 -121 -17 -66 66 -69 53 -44 -149 5 -38 8 -71 6 -72 -1 -2 -34 13
-72 32 -125 61 -211 80 -364 80 -93 0 -161 -6 -220 -18 -286 -62 -559 -199
-616 -309 -25 -49 -13 -61 56 -56 33 2 60 3 60 2 0 -1 -12 -28 -26 -60 -28
-64 -65 -195 -63 -228 1 -16 3 -13 10 9 14 49 66 105 97 105 38 -1 96 -32 100
-53 2 -10 -10 -38 -27 -64 -22 -33 -29 -53 -24 -71 4 -17 2 -23 -5 -18 -8 5
-10 2 -6 -8 9 -24 -12 -19 -28 7 -24 37 -16 70 26 111 27 25 36 40 29 47 -16
16 -83 -65 -83 -102 0 -36 23 -84 45 -92 8 -4 15 -14 15 -24 0 -13 3 -14 12
-5 8 8 8 15 0 24 -6 8 -7 19 -3 27 13 21 45 -33 37 -63 -7 -27 -34 -42 -50
-26 -7 7 -3 10 11 10 20 0 40 27 28 38 -3 3 -5 0 -5 -6 0 -11 -54 -42 -73 -42
-20 0 -74 49 -91 82 l-17 33 6 -48 c10 -76 41 -155 100 -252 91 -152 251 -335
293 -335 15 0 15 6 -9 133 -21 116 16 286 87 398 41 66 126 143 191 175 49 25
70 29 138 29 69 0 89 -5 140 -30 122 -61 223 -202 261 -362 16 -66 15 -191 -2
-295 -10 -59 15 -48 75 32 163 219 293 481 365 736 l24 84 -74 0 c-41 0 -74
-2 -74 -5 0 -3 25 -19 55 -36 30 -17 55 -36 55 -43 0 -20 -44 -56 -81 -66 -37
-11 -90 -4 -131 16 -89 45 -96 207 -12 273 89 70 208 41 254 -62 l17 -38 7 47
c3 26 6 89 6 140 l0 93 -35 -22 c-19 -12 -34 -27 -35 -33 0 -20 -48 -44 -87
-44 -21 -1 -49 -7 -63 -15 -76 -43 -200 23 -200 107 0 26 25 68 41 68 5 0 9
-20 9 -44 0 -34 5 -48 21 -60 25 -17 47 -11 109 30 49 32 119 37 148 11 17
-16 20 -15 42 8 13 14 29 24 36 21 8 -3 9 8 2 42 -18 97 -82 321 -117 409
l-20 51 77 37 c94 44 112 60 112 96 0 43 -48 75 -163 109 -56 17 -114 34 -129
39 -22 7 -30 6 -37 -7 -6 -11 -1 -22 20 -40 25 -20 29 -31 29 -73 0 -59 -26
-116 -70 -153 -40 -33 -50 -33 -85 4 -27 28 -29 37 -29 105 0 84 21 128 65
133 17 2 29 13 37 34 9 25 16 30 36 26 22 -4 28 2 52 56 15 34 29 83 32 109 4
44 3 49 -14 45 -11 -2 -37 -30 -58 -62 -22 -33 -41 -55 -42 -50 -1 5 -5 35 -9
67 -8 72 -28 76 -57 11z m24 -30 c-3 -28 0 -39 17 -50 26 -19 27 -36 2 -58
-15 -14 -24 -15 -40 -6 -21 11 -30 60 -11 60 6 0 10 17 10 38 0 37 6 52 20 52
3 0 4 -16 2 -36z m138 -4 c0 -11 -8 -28 -19 -39 -10 -10 -21 -25 -23 -32 -3
-8 -9 -11 -13 -7 -4 4 -2 14 4 22 7 8 10 24 6 35 -8 26 1 41 26 41 12 0 19 -7
19 -20z m92 -277 c7 2 23 0 35 -4 13 -5 25 -4 28 1 4 6 17 10 31 10 17 0 24
-6 24 -19 0 -11 5 -21 11 -23 15 -5 0 -58 -19 -65 -8 -4 -23 -1 -33 5 -11 7
-20 8 -24 2 -9 -14 -51 -12 -67 3 -7 6 -24 12 -38 12 -23 0 -25 3 -23 44 2 50
19 67 45 44 9 -8 23 -13 30 -10z m-9 -403 c49 -31 57 -49 32 -70 -8 -7 -12
-16 -9 -21 13 -21 -79 -159 -106 -159 -27 0 -109 51 -116 72 -7 22 39 108 83
154 18 20 33 40 33 45 0 17 35 8 83 -21z m-783 -152 c0 -9 3 -9 12 0 7 7 19
12 29 12 21 0 153 -66 168 -84 9 -10 1 -32 -31 -94 -24 -45 -48 -84 -54 -86
-20 -8 -154 64 -172 92 -9 15 -25 33 -34 40 -17 12 -16 17 12 72 22 43 36 60
50 60 11 0 20 -5 20 -12z m-164 -93 c12 -8 26 -27 32 -42 5 -15 14 -37 18 -48
4 -11 8 -22 9 -25 1 -3 5 -13 9 -22 5 -10 5 -25 2 -34 -5 -13 -9 -14 -21 -4
-14 12 -20 5 -17 -22 3 -20 -33 -29 -110 -26 -77 3 -83 4 -86 26 -2 12 -9 22
-16 22 -16 0 -13 73 3 78 6 2 11 12 11 21 0 24 37 70 64 81 33 14 80 11 102
-5z m-293 -67 c-1 -20 2 -25 16 -21 22 6 52 -22 45 -41 -7 -18 -37 -26 -99
-26 -42 0 -52 -4 -60 -22 -12 -27 -83 -55 -160 -64 -66 -8 -69 1 -19 50 50 49
98 69 145 62 40 -6 38 -8 92 69 22 31 43 27 40 -7z m935 -10 c2 -12 -11 -24
-43 -40 -31 -15 -51 -33 -59 -53 -10 -22 -35 -42 -100 -77 -48 -27 -91 -48
-96 -48 -14 0 -60 61 -60 80 0 41 157 127 213 116 24 -4 42 0 72 19 45 27 68
28 73 3z m-893 -119 c4 -6 7 -26 7 -45 0 -26 4 -34 18 -34 17 0 50 -34 50 -52
0 -11 -34 -10 -66 2 -36 14 -26 22 14 11 33 -10 41 -4 20 17 -21 21 -52 13
-70 -17 -21 -39 -92 -89 -135 -97 -25 -5 -39 -2 -53 11 -31 28 -25 60 21 106
41 41 42 41 95 34 50 -6 54 -5 54 14 0 23 20 61 32 61 4 0 10 -5 13 -11z m894
-8 c7 -5 10 -14 7 -20 -7 -11 -1 -15 47 -25 21 -5 27 -12 27 -34 0 -39 -30
-206 -39 -215 -11 -11 -174 13 -190 28 -12 12 -12 28 -1 107 18 132 22 142 65
135 28 -5 37 -2 45 14 12 21 18 23 39 10z m-384 -12 c4 -5 0 -18 -10 -28 -20
-24 -11 -67 19 -83 11 -6 24 -16 28 -21 4 -7 19 -8 45 -1 28 7 39 15 41 32 2
12 7 22 12 22 15 0 40 -44 40 -71 0 -28 -34 -79 -52 -79 -6 0 -16 -7 -22 -16
-11 -14 -55 -23 -124 -25 -29 -1 -72 37 -72 63 0 11 -6 31 -14 47 -23 44 -10
105 31 141 34 31 67 38 78 19z m-245 -84 c7 -13 9 -28 5 -35 -6 -9 -2 -9 15 0
12 6 23 10 24 8 1 -2 7 -11 15 -20 11 -15 8 -19 -28 -37 l-40 -21 -12 22 c-16
31 -15 31 -37 19 -19 -10 -18 -13 20 -86 50 -95 62 -92 15 3 -20 39 -33 73
-29 76 6 7 82 -122 82 -139 0 -12 -65 -55 -83 -55 -15 0 -60 87 -52 101 3 5
-1 6 -9 3 -8 -3 -19 3 -25 14 -9 16 -6 23 12 35 17 12 18 16 6 16 -17 1 -34
55 -23 73 4 5 21 7 40 3 26 -4 34 -3 34 9 0 21 28 46 44 40 7 -3 19 -16 26
-29z m88 -130 c12 -25 22 -48 22 -50 0 -6 -61 -37 -65 -33 -8 9 -45 88 -45 96
0 9 37 30 56 31 5 1 20 -19 32 -44z m-254 -36 c44 -34 27 -119 -24 -119 -19 0
-23 -15 -36 -123 -8 -70 -30 -87 -92 -71 l-37 9 -9 128 c-5 70 -6 131 -2 135
4 3 26 7 50 8 31 1 50 9 69 28 32 31 46 32 81 5z m692 -46 c13 -8 24 -22 24
-29 0 -8 7 -14 16 -14 17 0 94 -57 94 -69 0 -16 -73 -101 -87 -101 -19 0 -65
36 -79 61 -5 11 -25 27 -44 37 -26 13 -36 27 -47 65 -19 64 -8 78 54 71 25 -3
56 -12 69 -21z m336 -90 c31 -33 36 -46 41 -100 3 -35 1 -66 -4 -69 -5 -3 -32
-7 -59 -9 -28 -2 -57 -8 -64 -14 -8 -7 -36 -14 -64 -18 l-49 -5 -1 59 c-1 57
1 62 36 95 45 42 114 98 122 98 3 0 22 -17 42 -37z m-1178 -232 c10 -11 16
-23 13 -28 -3 -4 4 -46 14 -93 16 -74 17 -127 2 -152 -6 -11 -72 25 -119 66
-39 33 -41 39 -47 103 -6 76 7 103 49 103 13 0 26 5 29 10 10 16 41 11 59 -9z
m1071 -58 c7 9 15 17 19 17 12 0 6 -22 -14 -50 -15 -21 -17 -31 -9 -36 8 -4 9
-3 5 4 -4 7 -3 12 3 12 20 0 21 -20 2 -39 -10 -10 -25 -36 -32 -56 -8 -21 -24
-45 -37 -55 -14 -11 -20 -24 -16 -34 8 -21 -25 -21 -52 0 -12 10 -14 14 -4 11
13 -4 15 8 13 70 -1 41 -4 77 -6 80 -10 10 17 67 42 90 l26 23 24 -27 c21 -25
24 -25 36 -10z"/>
<path d="M2127 2893 c-23 -6 -18 -37 7 -41 21 -4 37 14 29 35 -5 14 -6 14 -36
6z"/>
<path d="M2240 2945 c0 -8 7 -15 15 -15 8 0 15 7 15 15 0 8 -7 15 -15 15 -8 0
-15 -7 -15 -15z"/>
<path d="M2310 2671 c0 -5 6 -12 13 -14 9 -4 9 -6 0 -6 -7 -1 -10 -8 -7 -16 4
-9 1 -15 -7 -15 -10 0 -10 -3 -2 -11 6 -6 16 -9 21 -5 15 9 20 54 9 65 -13 13
-27 14 -27 2z"/>
<path d="M2452 2662 c-15 -10 -12 -60 5 -74 19 -16 28 -1 12 19 -12 15 -12 16
3 10 10 -3 20 -2 23 3 4 6 -4 10 -16 10 -18 0 -20 3 -11 12 23 23 11 37 -16
20z"/>
<path d="M2360 2641 c-15 -28 21 -71 47 -55 24 15 27 38 8 58 -22 21 -42 20
-55 -3z"/>
<path d="M2300 2280 c14 -9 7 -15 -15 -10 -5 1 -5 -4 2 -11 10 -10 16 -9 30 2
16 12 17 12 6 -2 -7 -9 -10 -19 -6 -22 3 -4 12 1 20 11 13 16 14 15 8 -5 -8
-29 27 -50 45 -28 10 12 3 20 -36 45 -26 16 -53 30 -58 30 -6 0 -4 -5 4 -10z
m79 -49 c9 -6 10 -11 2 -15 -6 -4 -11 -2 -11 4 0 6 -4 8 -10 5 -5 -3 -10 -1
-10 4 0 13 10 14 29 2z"/>
<path d="M2219 2189 c-26 -41 -30 -52 -18 -60 8 -5 19 -8 24 -8 6 0 4 3 -2 6
-21 8 -15 44 8 50 12 3 18 11 15 19 -8 20 5 17 47 -12 37 -25 37 -25 22 -52
-40 -67 -39 -66 -85 -36 -28 19 -44 24 -51 17 -13 -13 13 -39 66 -67 35 -19
36 -19 54 0 26 28 67 99 51 89 -10 -6 -12 -4 -7 9 4 10 7 24 7 32 0 9 5 12 10
9 6 -3 10 -4 10 -2 0 10 -81 57 -99 57 -12 0 -31 -19 -52 -51z"/>
<path d="M2294 2162 c4 -6 -2 -26 -14 -42 -12 -17 -19 -30 -16 -30 2 0 14 14
27 31 17 24 19 33 9 42 -10 9 -11 9 -6 -1z"/>
<path d="M2250 2119 c0 -5 5 -7 10 -4 6 3 10 8 10 11 0 2 -4 4 -10 4 -5 0 -10
-5 -10 -11z"/>
<path d="M1577 2073 c-13 -21 -26 -43 -30 -49 -4 -7 -1 -23 6 -37 13 -25 14
-25 47 41 19 37 36 70 38 75 2 4 -6 7 -17 7 -13 0 -29 -14 -44 -37z"/>
<path d="M1616 2027 c-20 -41 -36 -78 -36 -83 0 -9 90 -58 95 -52 7 11 45 96
45 103 0 5 -5 4 -11 -2 -6 -6 -19 -9 -28 -6 -12 5 -13 3 -4 -7 15 -16 6 -40
-16 -40 -14 0 -14 -2 -1 -10 36 -23 -16 -18 -58 6 -1 0 0 9 4 18 3 9 10 14 14
11 5 -3 6 4 3 16 -5 19 -3 20 18 14 23 -7 23 -6 5 8 -19 14 -19 15 6 40 14 14
23 29 19 32 -3 4 9 -1 26 -12 34 -19 46 -40 16 -28 -37 14 -53 14 -53 -2 0 -9
6 -13 15 -9 8 3 15 1 15 -5 0 -6 7 -9 15 -5 8 3 15 0 15 -7 1 -15 30 22 30 38
0 9 -79 55 -94 55 -2 0 -20 -33 -40 -73z"/>
<path d="M1726 1965 c-21 -42 -36 -79 -32 -82 8 -8 8 -8 50 73 38 74 41 84 28
84 -4 0 -25 -34 -46 -75z"/>
<path d="M1361 2013 c-7 -14 -12 -15 -24 -4 -21 17 -54 -1 -67 -35 -14 -35
-12 -44 6 -44 8 0 13 -4 10 -9 -7 -10 74 -19 116 -13 17 3 25 9 22 17 -3 7 -1
16 5 20 17 10 13 40 -6 57 -29 25 -52 29 -62 11z"/>
<path d="M1253 1913 c-20 -8 -15 -19 10 -20 12 0 16 1 9 4 -6 3 -10 9 -6 14 6
10 5 10 -13 2z"/>
<path d="M1404 1888 c-4 -7 -3 -8 4 -4 6 4 25 0 42 -9 16 -8 30 -11 30 -6 0
20 -65 37 -76 19z"/>
<path d="M1355 1870 c-3 -5 -2 -10 4 -10 5 0 13 5 16 10 3 6 2 10 -4 10 -5 0
-13 -4 -16 -10z"/>
<path d="M1393 1855 c0 -17 15 -19 35 -6 11 7 10 10 -3 15 -25 9 -32 7 -32 -9z"/>
<path d="M1270 1850 c20 -13 33 -13 25 0 -3 6 -14 10 -23 10 -15 0 -15 -2 -2
-10z"/>
<path d="M1310 1850 c0 -5 5 -10 11 -10 5 0 7 5 4 10 -3 6 -8 10 -11 10 -2 0
-4 -4 -4 -10z"/>
<path d="M1265 1820 c3 -5 39 -10 80 -10 41 0 77 5 80 10 4 6 -25 10 -80 10
-55 0 -84 -4 -80 -10z"/>
<path d="M1095 1970 c-3 -5 -3 -15 1 -22 4 -7 3 -8 -4 -4 -6 4 -16 -4 -22 -16
-10 -21 -10 -21 3 -6 8 10 17 15 21 11 8 -8 26 15 26 35 0 14 -16 16 -25 2z"/>
<path d="M1097 1908 c-15 -11 -11 -13 25 -13 24 0 43 6 46 13 5 16 -49 16 -71
0z"/>
<path d="M915 1869 c-52 -27 -106 -79 -83 -79 9 0 22 8 27 18 6 9 11 11 11 5
0 -23 20 -14 20 10 1 20 2 20 11 5 5 -10 16 -18 24 -18 9 0 12 6 9 18 -5 15
-4 15 10 -2 14 -17 16 -17 22 -3 3 10 4 24 0 32 -3 8 -1 15 4 15 6 0 10 -9 10
-20 0 -27 16 -25 23 2 11 41 -28 49 -88 17z"/>
<path d="M1980 1920 c-8 -5 -36 -9 -61 -8 -37 1 -62 -7 -120 -39 -82 -43 -93
-63 -60 -105 l21 -26 84 45 c65 35 87 52 95 74 5 16 25 38 43 49 18 11 29 20
23 20 -5 0 -17 -5 -25 -10z"/>
<path d="M1135 1801 c-7 -22 4 -53 16 -45 12 7 12 64 0 64 -5 0 -12 -8 -16
-19z"/>
<path d="M1025 1729 c-4 -6 -5 -12 -2 -15 2 -3 7 2 10 11 7 17 1 20 -8 4z"/>
<path d="M1086 1723 c-6 -14 -5 -15 5 -6 7 7 10 15 7 18 -3 3 -9 -2 -12 -12z"/>
<path d="M953 1694 c-12 -19 -14 -30 -6 -43 13 -20 73 -28 73 -9 0 14 -37 78
-45 78 -2 0 -12 -12 -22 -26z m37 -14 c0 -5 -4 -10 -10 -10 -5 0 -10 5 -10 10
0 6 5 10 10 10 6 0 10 -4 10 -10z"/>
<path d="M2024 1785 c-14 -28 -9 -35 24 -35 15 0 22 4 18 13 -3 6 -9 20 -12
30 -9 23 -17 21 -30 -8z"/>
<path d="M1945 1778 c-10 -28 -34 -201 -29 -209 3 -5 10 -9 16 -9 7 0 7 4 1
13 -12 15 11 183 28 203 9 11 9 14 0 14 -6 0 -14 -6 -16 -12z"/>
<path d="M2099 1757 c14 -14 14 -37 0 -131 l-11 -75 -37 -4 -36 -4 41 -1 40
-2 12 73 c6 39 15 88 18 108 5 32 3 37 -16 42 -17 4 -20 3 -11 -6z"/>
<path d="M1951 1673 c-14 -97 -12 -101 52 -105 20 -1 45 -2 54 -2 18 -1 20 8
37 125 l7 46 -52 1 c-29 0 -57 6 -62 11 -20 20 -24 11 -36 -76z m104 37 c17
-7 16 -9 -10 -9 -16 0 -39 4 -50 9 -17 7 -16 9 10 9 17 0 39 -4 50 -9z m10
-42 c7 -7 -1 -9 -24 -4 -18 3 -42 6 -52 6 -11 0 -19 4 -19 10 0 12 81 2 95
-12z m-20 -28 c16 -7 13 -9 -17 -9 -21 -1 -38 4 -38 9 0 12 27 12 55 0z m10
-42 c7 -7 -1 -9 -24 -4 -18 3 -42 6 -52 6 -11 0 -19 4 -19 10 0 12 81 2 95
-12z"/>
<path d="M1963 1553 c9 -2 25 -2 35 0 9 3 1 5 -18 5 -19 0 -27 -2 -17 -5z"/>
<path d="M1621 1794 c-21 -15 -22 -18 -6 -26 12 -7 20 -5 30 9 27 35 15 44
-24 17z"/>
<path d="M1570 1737 c0 -20 4 -22 42 -19 l42 4 -23 19 c-33 27 -61 25 -61 -4z"/>
<path d="M1588 1703 c-21 -5 -24 -45 -5 -61 18 -15 91 40 75 56 -12 12 -38 14
-70 5z"/>
<path d="M1807 1689 c-6 -23 7 -49 24 -49 14 0 11 34 -4 55 -13 17 -14 17 -20
-6z"/>
<path d="M1635 1645 l-50 -43 24 -26 c14 -14 35 -26 47 -26 23 0 26 6 47 97
10 44 -16 43 -68 -2z"/>
<path d="M1716 1643 c-2 -10 -7 -33 -11 -50 -6 -32 -5 -33 25 -33 38 0 46 17
26 64 -16 39 -32 46 -40 19z"/>
<path d="M1760 1655 c0 -3 20 -53 26 -63 0 -1 9 0 18 4 22 8 20 41 -3 54 -20
10 -41 13 -41 5z"/>
<path d="M1387 1723 c-4 -3 -7 -12 -7 -20 0 -15 26 -18 34 -4 7 11 -18 33 -27
24z"/>
<path d="M1307 1670 c3 -11 11 -19 17 -17 17 6 13 31 -6 35 -12 2 -15 -2 -11
-18z"/>
<path d="M1246 1524 c-8 -20 -8 -24 2 -24 4 0 8 9 9 20 2 24 -3 26 -11 4z"/>
<path d="M1100 1506 c0 -2 14 -6 30 -8 17 -3 30 -1 30 4 0 4 -13 8 -30 8 -16
0 -30 -2 -30 -4z"/>
<path d="M1070 1484 c0 -16 8 -19 54 -20 59 0 67 10 14 19 -18 3 -41 8 -50 12
-13 5 -18 2 -18 -11z"/>
<path d="M1118 1443 c12 -2 32 -2 45 0 12 2 2 4 -23 4 -25 0 -35 -2 -22 -4z"/>
<path d="M1088 1391 c3 -40 7 -46 27 -47 15 -1 22 3 19 11 -5 12 30 28 40 17
10 -9 7 -42 -4 -42 -5 0 -6 -7 -3 -17 4 -10 2 -14 -5 -9 -6 3 -13 2 -17 -4 -3
-5 1 -10 10 -10 20 0 35 40 35 94 0 41 -2 43 -25 39 -13 -3 -37 -1 -52 5 l-28
9 3 -46z"/>
<path d="M1150 1350 c0 -5 5 -10 10 -10 6 0 10 5 10 10 0 6 -4 10 -10 10 -5 0
-10 -4 -10 -10z"/>
<path d="M1107 1323 c-4 -6 -1 -14 5 -16 8 -3 6 -6 -4 -6 -24 -1 -11 -31 13
-31 12 0 16 5 13 15 -4 8 0 23 7 33 13 15 12 16 -3 4 -13 -10 -17 -10 -20 0
-3 8 -6 9 -11 1z"/>
<path d="M1858 1495 c-10 -13 -18 -27 -18 -31 0 -10 30 17 41 38 14 26 -3 22
-23 -7z"/>
<path d="M1888 1488 c-35 -48 -44 -63 -29 -54 8 5 14 0 18 -13 3 -12 13 -21
24 -21 11 0 24 -11 30 -24 6 -13 25 -34 42 -46 l30 -23 33 39 c18 22 33 44 34
51 0 14 -45 47 -77 57 -13 4 -23 11 -23 16 0 11 -40 50 -51 50 -4 0 -18 -15
-31 -32z m64 -50 c-21 -21 -13 -32 10 -12 l21 19 -17 -27 c-14 -21 -20 -25
-31 -15 -10 9 -9 16 3 35 8 12 17 20 20 17 3 -3 0 -11 -6 -17z"/>
<path d="M2228 1433 c-7 -9 -12 -24 -10 -35 3 -19 -14 -26 -20 -7 -2 6 -21 -3
-42 -20 -38 -30 -38 -31 -13 -31 19 0 25 4 21 15 -4 10 0 15 11 15 10 0 13 -5
9 -12 -5 -8 -2 -9 10 -5 10 4 24 7 31 7 7 0 16 7 19 16 3 8 2 12 -4 9 -11 -7
-14 8 -3 18 8 9 34 -13 28 -23 -2 -4 8 -5 22 -2 l27 5 -22 15 c-12 8 -22 20
-22 27 0 20 -27 25 -42 8z"/>
<path d="M2178 1336 c-80 -21 -90 -30 -61 -51 17 -13 17 -14 0 -32 -9 -11 -17
-23 -17 -27 0 -11 72 4 98 21 14 8 34 12 48 9 15 -4 24 -2 24 5 0 7 9 9 25 5
24 -6 25 -4 25 38 0 36 -3 44 -15 40 -8 -4 -15 -1 -15 5 0 15 -20 12 -112 -13z
m78 -7 c10 -17 -13 -36 -27 -22 -12 12 -4 33 11 33 5 0 12 -5 16 -11z m-56
-24 c0 -8 -4 -15 -9 -15 -13 0 -22 16 -14 24 11 11 23 6 23 -9z m90 -6 c0 -5
-7 -9 -15 -9 -15 0 -20 12 -9 23 8 8 24 -1 24 -14z m-110 -29 c0 -11 -6 -20
-14 -20 -18 0 -29 16 -21 30 11 18 35 11 35 -10z"/>
<path d="M1056 1185 c-11 -8 -28 -13 -38 -9 -12 3 -18 0 -18 -10 0 -9 -4 -16
-10 -16 -5 0 -10 -5 -10 -12 0 -9 3 -9 11 -1 6 6 18 9 25 6 8 -3 14 0 14 6 0
6 16 10 35 9 41 -1 48 3 39 26 -8 20 -23 20 -48 1z"/>
<path d="M1057 1135 c3 -8 9 -12 14 -9 12 7 11 11 -5 17 -10 4 -13 1 -9 -8z"/>
<path d="M1093 1130 c-1 -11 2 -18 8 -15 11 7 12 35 1 35 -4 0 -8 -9 -9 -20z"/>
<path d="M1030 1115 c7 -9 15 -13 17 -11 7 7 -7 26 -19 26 -6 0 -6 -6 2 -15z"/>
<path d="M997 1103 c3 -10 33 -38 66 -62 35 -25 56 -46 49 -49 -10 -3 -9 -9 4
-23 9 -10 14 -19 10 -19 -11 0 -117 82 -112 87 3 3 21 -7 41 -22 48 -37 55
-26 7 11 -57 46 -59 46 -60 14 -1 -25 8 -35 60 -70 33 -22 64 -40 67 -40 11 0
10 33 -2 48 -5 6 -5 12 0 12 18 0 11 37 -10 50 -20 12 -21 12 -8 -3 30 -38 -8
-14 -54 33 -52 53 -66 61 -58 33z"/>
<path d="M1067 1096 c-3 -8 1 -20 9 -26 10 -9 14 -9 14 -1 0 6 -4 11 -10 11
-5 0 -7 7 -4 15 4 8 4 15 1 15 -3 0 -7 -6 -10 -14z"/>
<path d="M1111 1094 c0 -11 3 -14 6 -6 3 7 2 16 -1 19 -3 4 -6 -2 -5 -13z"/>
<path d="M2120 1148 c0 -9 -9 -20 -20 -23 -23 -7 -27 -45 -5 -45 8 0 15 -3 15
-7 0 -5 11 -8 24 -8 13 0 22 4 19 8 -3 4 0 14 6 20 7 9 3 21 -14 42 -18 22
-24 26 -25 13z"/>
<path d="M2076 1038 c-28 -106 34 -144 72 -45 18 47 18 53 3 58 -9 4 -21 2
-28 -3 -7 -5 -14 -5 -18 2 -10 17 -22 12 -29 -12z"/>
<path d="M2190 2778 c-12 -22 -12 -22 6 -6 10 10 15 20 12 24 -4 3 -12 -5 -18
-18z"/>
<path d="M2123 2723 c9 -2 23 -2 30 0 6 3 -1 5 -18 5 -16 0 -22 -2 -12 -5z"/>
<path d="M2211 2717 c2 -1 13 -9 24 -17 19 -14 19 -14 6 3 -7 9 -18 17 -24 17
-6 0 -8 -1 -6 -3z"/>
<path d="M2111 2696 c-17 -20 -25 -116 -13 -146 9 -22 11 -19 11 25 1 29 9 67
20 87 17 35 17 48 1 48 -4 0 -13 -6 -19 -14z"/>
<path d="M2146 2668 c-30 -48 -31 -168 -1 -168 29 0 67 148 45 175 -17 21 -27
19 -44 -7z"/>
<path d="M2208 2652 c3 -36 -4 -74 -23 -127 -4 -11 4 -5 18 14 37 48 50 92 38
125 -16 41 -37 33 -33 -12z"/>
<path d="M2274 2512 c-7 -4 -9 -23 -4 -52 6 -41 7 -43 14 -19 10 36 4 80 -10
71z"/>
<path d="M2245 2470 c11 -17 -23 -59 -60 -77 -28 -13 -35 -22 -35 -46 0 -19
-10 -38 -30 -57 -27 -25 -28 -29 -14 -41 14 -11 19 -9 35 11 10 14 22 36 25
50 9 41 19 54 50 65 47 16 55 24 45 44 -6 10 -7 27 -4 39 3 13 1 22 -6 22 -7
0 -9 -5 -6 -10z"/>
<path d="M2300 2439 c0 -11 -30 -51 -69 -92 -73 -78 -103 -121 -77 -111 8 3
17 12 20 20 3 9 10 13 15 9 6 -3 15 4 21 15 6 11 31 43 55 70 32 36 45 59 45
80 0 17 -2 30 -5 30 -3 0 -5 -9 -5 -21z"/>
<path d="M2189 2338 c-12 -23 -12 -23 10 -4 23 21 26 26 11 26 -5 0 -15 -10
-21 -22z"/>
<path d="M2106 2305 c-11 -8 -15 -15 -9 -15 6 0 16 7 23 15 16 19 11 19 -14 0z"/>
<path d="M2097 1981 c-22 -84 90 -147 190 -106 19 8 50 15 69 15 18 0 36 5 39
10 3 6 1 10 -5 10 -6 0 -10 8 -8 18 8 52 -46 55 -126 7 -32 -19 -68 -35 -81
-35 -28 0 -56 30 -64 72 -7 31 -7 32 -14 9z"/>
<path d="M2459 1963 c-13 -16 -12 -17 4 -4 9 7 17 15 17 17 0 8 -8 3 -21 -13z"/>
<path d="M2411 1924 c0 -11 3 -14 6 -6 3 7 2 16 -1 19 -3 4 -6 -2 -5 -13z"/>
<path d="M2260 1803 c-23 -9 -60 -45 -76 -75 -18 -35 -18 -99 0 -143 32 -75
152 -102 216 -49 17 15 28 29 25 32 -3 4 -9 2 -13 -4 -15 -21 -63 -44 -94 -44
-96 0 -166 107 -128 195 6 13 7 5 4 -25 -10 -86 34 -146 115 -157 43 -6 91 19
90 47 0 10 -2 11 -6 3 -2 -7 -9 -13 -15 -13 -6 0 -8 7 -4 15 4 12 0 14 -18 9
-26 -6 -30 -2 -40 39 -6 26 -5 27 31 28 51 1 84 12 75 24 -4 6 -16 10 -27 10
-13 0 -20 7 -20 20 0 11 6 19 13 18 21 -5 13 14 -14 36 -15 12 -36 20 -48 20
-17 -1 -17 -2 -3 -6 9 -2 17 -9 17 -15 0 -6 -3 -8 -7 -5 -3 4 -15 0 -25 -10
-21 -19 -25 -41 -4 -24 10 9 16 8 26 -3 13 -17 6 -36 -14 -36 -19 0 -42 40
-40 68 1 24 -3 26 -25 13 -8 -5 -9 -11 -3 -15 6 -3 9 -19 8 -34 -2 -19 -10
-28 -25 -30 -27 -4 -29 28 -1 35 15 4 17 9 10 24 -23 42 94 69 138 32 11 -10
33 -42 47 -70 28 -54 52 -62 40 -14 -17 67 -74 111 -145 110 -25 0 -52 -3 -60
-6z m-40 -58 c-7 -9 -15 -13 -17 -11 -7 7 7 26 19 26 6 0 6 -6 -2 -15z m150 5
c0 -5 -2 -10 -4 -10 -3 0 -8 5 -11 10 -3 6 -1 10 4 10 6 0 11 -4 11 -10z
m-140 -80 c0 -5 -7 -10 -15 -10 -8 0 -15 5 -15 10 0 6 7 10 15 10 8 0 15 -4
15 -10z m50 0 c0 -5 -2 -10 -4 -10 -3 0 -8 5 -11 10 -3 6 -1 10 4 10 6 0 11
-4 11 -10z m-13 -21 c15 -15 5 -39 -17 -39 -22 0 -32 24 -17 39 6 6 14 11 17
11 3 0 11 -5 17 -11z m43 -18 c0 -6 -4 -13 -10 -16 -5 -3 -10 1 -10 9 0 9 5
16 10 16 6 0 10 -4 10 -9z m-60 -47 c0 -8 -4 -12 -10 -9 -5 3 -10 10 -10 16 0
5 5 9 10 9 6 0 10 -7 10 -16z m70 0 c11 -12 11 -18 -2 -31 -19 -18 -38 -10
-38 16 0 33 20 40 40 15z m40 -14 c0 -5 -4 -10 -10 -10 -5 0 -10 5 -10 10 0 6
5 10 10 10 6 0 10 -4 10 -10z"/>
<path d="M2295 1580 c-3 -5 -1 -10 4 -10 6 0 11 5 11 10 0 6 -2 10 -4 10 -3 0
-8 -4 -11 -10z"/>
<path d="M878 1543 c-67 -72 -71 -162 -11 -225 27 -28 66 -37 79 -17 3 6 -8
25 -25 43 -17 17 -33 45 -37 62 -7 38 16 87 51 110 29 19 32 39 9 48 -28 11
-40 7 -66 -21z"/>
<path d="M1001 1520 c-1 -9 -14 -30 -31 -48 -16 -18 -30 -43 -29 -55 1 -21 1
-21 7 -2 4 11 20 37 35 57 16 21 27 43 24 50 -4 9 -6 8 -6 -2z"/>
<path d="M1257 1184 c-11 -11 -8 -285 4 -327 12 -43 48 -72 79 -62 40 13 50
61 50 235 l0 160 -25 0 -25 0 0 -154 c0 -85 -3 -161 -6 -170 -17 -43 -24 -1
-26 152 -3 159 -4 167 -23 170 -12 2 -24 0 -28 -4z"/>
<path d="M1420 1166 c0 -15 7 -26 20 -29 19 -5 20 -14 20 -176 l0 -171 25 0
25 0 0 175 c0 168 1 175 20 175 15 0 20 7 20 25 0 24 -2 25 -65 25 -62 0 -65
-1 -65 -24z"/>
<path d="M1581 1159 c-25 -41 -35 -120 -28 -220 6 -91 35 -152 86 -182 31 -18
31 -18 40 5 6 16 4 26 -7 34 -11 8 -12 15 -3 31 21 40 32 159 21 236 -16 116
-69 162 -109 96z m53 -45 c8 -20 8 -228 0 -248 -22 -57 -40 53 -29 179 6 81
16 103 29 69z"/>
<path d="M1745 1178 c-4 -13 -45 -355 -45 -376 0 -7 11 -12 24 -12 21 0 25 5
28 38 4 48 32 52 36 4 3 -33 21 -48 45 -39 11 4 10 40 -9 199 -13 106 -23 194
-24 196 -1 9 -51 0 -55 -10z m39 -165 c5 -88 4 -103 -9 -103 -12 0 -15 13 -15
59 0 55 10 155 15 149 1 -2 5 -49 9 -105z"/>
<path d="M1834 1173 c29 -99 46 -208 46 -289 0 -94 0 -94 25 -94 25 0 25 0 25
95 0 81 19 199 46 288 4 13 0 17 -20 17 -20 0 -27 -6 -32 -27 -3 -16 -9 -39
-14 -53 -7 -23 -8 -22 -14 15 -11 62 -14 65 -41 65 -20 0 -25 -4 -21 -17z"/>
<path d="M870 789 c-39 -16 -89 -58 -105 -89 -29 -56 -14 -140 24 -140 31 0
46 26 31 54 -35 66 41 156 132 156 89 0 138 -51 138 -142 0 -67 -17 -111 -60
-160 -62 -71 -175 -93 -140 -28 6 12 9 28 6 36 -3 8 -2 13 2 10 5 -3 21 36 36
87 15 51 34 102 42 115 14 21 13 22 -16 22 -35 0 -43 -13 -96 -153 -46 -121
-73 -150 -104 -112 -7 8 -16 12 -21 9 -14 -8 -10 -70 5 -83 21 -18 71 -17 99
2 22 14 26 14 40 0 23 -23 94 -20 145 6 142 73 166 321 37 396 -33 20 -55 25
-106 24 -35 0 -75 -5 -89 -10z"/>
<path d="M1564 772 c-19 -13 -23 -40 -9 -59 11 -14 18 -16 32 -7 23 14 28 41
13 59 -14 17 -20 18 -36 7z"/>
<path d="M1401 635 c-34 -114 -75 -175 -115 -175 -38 0 -37 11 5 49 34 30 42
44 46 83 6 54 -7 78 -42 78 -86 0 -156 -188 -92 -248 35 -33 74 -28 111 12
l30 35 11 -32 c14 -44 45 -47 79 -7 14 17 26 36 26 41 0 5 4 9 9 9 6 0 11 -17
13 -37 2 -31 7 -39 26 -41 29 -4 48 11 75 62 l22 41 3 -30 c8 -83 25 -93 88
-54 31 19 39 30 35 52 0 4 4 6 11 5 19 -4 77 112 78 155 0 31 -3 37 -21 37
-19 0 -21 -5 -17 -39 2 -22 1 -38 -3 -35 -3 2 -11 -14 -18 -35 -14 -49 -47
-91 -72 -91 -23 0 -24 18 -4 84 25 82 18 116 -25 116 -5 0 -14 -26 -20 -57 -7
-31 -24 -75 -37 -97 -33 -52 -30 -49 -47 -43 -12 5 -10 18 12 82 28 81 24 107
-14 113 -15 2 -21 -7 -31 -49 -20 -82 -78 -168 -99 -146 -3 3 11 56 31 117 38
119 38 150 1 150 -20 0 -26 -12 -55 -105z m-84 -54 c-1 -16 -4 -28 -6 -25 -2
2 -15 -6 -29 -16 -13 -11 -29 -20 -34 -20 -14 0 1 42 25 68 29 31 47 28 44 -7z"/>
<path d="M1904 651 c-35 -22 -65 -78 -71 -136 -5 -45 11 -100 27 -90 6 4 9 1
8 -7 -2 -8 9 -14 30 -16 27 -3 39 3 67 32 l33 35 7 -27 c7 -29 21 -42 46 -42
12 0 18 13 22 52 7 60 59 173 83 182 13 5 15 2 9 -16 -4 -13 -8 -39 -9 -58 -1
-29 3 -36 20 -38 38 -5 74 119 40 140 -21 14 -53 8 -71 -12 -10 -11 -21 -20
-25 -20 -4 0 -10 9 -13 20 -3 11 -13 20 -24 20 -14 0 -23 -17 -40 -74 -26 -84
-66 -136 -107 -136 -33 0 -33 13 0 35 28 18 63 86 64 122 0 26 -25 53 -48 53
-9 0 -31 -9 -48 -19z m76 -51 c0 -13 -60 -80 -71 -80 -16 0 -9 37 12 64 20 25
59 36 59 16z"/>
<path d="M2251 564 c-38 -124 -36 -157 13 -162 18 -2 26 0 22 7 -4 7 -1 9 8 5
10 -4 24 8 42 35 15 23 29 39 31 37 3 -2 0 -30 -7 -60 l-12 -56 -48 6 c-40 5
-51 3 -69 -15 -42 -42 -14 -121 43 -121 33 0 57 10 50 21 -3 5 1 7 8 4 7 -3
24 11 37 30 21 31 28 35 69 35 62 0 106 29 128 85 18 48 13 88 -13 118 -19 20
-33 21 -57 4 -17 -12 -17 -14 0 -43 17 -30 17 -32 -2 -65 -20 -34 -68 -69 -79
-58 -4 5 36 187 61 277 6 21 4 23 -17 20 -17 -2 -31 -17 -48 -53 -13 -27 -35
-70 -50 -95 -14 -25 -25 -48 -24 -51 1 -3 -9 -4 -22 -1 -30 5 -30 4 -4 76 25
72 23 120 -6 124 -18 2 -25 -11 -54 -104z m68 -223 c12 -8 12 -12 2 -25 -15
-18 -47 -21 -56 -6 -8 13 12 40 29 40 6 0 17 -4 25 -9z"/>
<path d="M780 295 c0 -44 0 -45 33 -44 23 1 26 3 10 6 -19 4 -23 11 -23 44 0
21 -4 39 -10 39 -5 0 -10 -20 -10 -45z"/>
<path d="M1369 333 c-1 -5 -1 -11 0 -15 0 -5 -7 -8 -18 -8 -10 0 -24 -6 -30
-14 -18 -22 -2 -46 30 -46 28 0 29 2 29 45 0 25 -2 45 -5 45 -3 0 -6 -3 -6 -7z
m-9 -53 c0 -11 -7 -20 -15 -20 -15 0 -21 21 -8 33 12 13 23 7 23 -13z"/>
<path d="M1650 295 c0 -25 5 -45 10 -45 6 0 10 20 10 45 0 25 -4 45 -10 45 -5
0 -10 -20 -10 -45z"/>
<path d="M2171 310 c0 -33 1 -34 10 -11 6 16 6 28 -1 35 -7 7 -10 -1 -9 -24z"/>
<path d="M1860 290 c0 -25 5 -40 13 -40 7 0 11 12 10 32 -2 48 -2 48 -13 48
-5 0 -10 -18 -10 -40z"/>
<path d="M2057 316 c-9 -23 5 -66 22 -66 14 0 14 2 1 10 -12 7 -13 13 -4 27 8
14 8 21 -1 30 -10 9 -14 9 -18 -1z"/>
<path d="M854 296 c-10 -26 4 -48 28 -44 17 2 23 10 23 28 0 18 -6 26 -23 28
-13 2 -25 -3 -28 -12z m42 -7 c10 -17 -13 -36 -27 -22 -12 12 -4 33 11 33 5 0
12 -5 16 -11z"/>
<path d="M956 295 c-8 -23 4 -45 25 -45 10 0 19 -4 19 -10 0 -5 5 -10 10 -10
6 0 10 18 10 40 0 37 -2 40 -29 40 -16 0 -31 -6 -35 -15z m44 -15 c0 -11 -7
-20 -15 -20 -8 0 -15 9 -15 20 0 11 7 20 15 20 8 0 15 -9 15 -20z"/>
<path d="M1036 298 c-12 -27 0 -48 29 -48 22 0 25 4 24 33 -1 29 -2 29 -8 8
-9 -35 -29 -37 -33 -4 -4 23 -6 25 -12 11z"/>
<path d="M1112 293 c-14 -27 -4 -43 26 -42 l27 1 -25 7 -25 7 24 6 c13 4 21
12 19 20 -7 20 -36 21 -46 1z m33 -3 c-3 -5 -10 -10 -16 -10 -5 0 -9 5 -9 10
0 6 7 10 16 10 8 0 12 -4 9 -10z"/>
<path d="M1211 268 c0 -24 3 -37 6 -30 2 6 15 12 28 12 13 0 25 6 28 13 8 21
-13 47 -38 47 -23 0 -25 -4 -24 -42z m46 17 c7 -20 -2 -29 -21 -22 -9 4 -13
13 -10 22 8 19 23 19 31 0z"/>
<path d="M1292 280 c0 -19 2 -27 5 -17 2 9 2 25 0 35 -3 9 -5 1 -5 -18z"/>
<path d="M1394 295 c-11 -27 4 -45 36 -45 27 0 30 3 30 30 0 27 -3 30 -30 30
-18 0 -33 -6 -36 -15z m43 -10 c7 -20 -2 -29 -21 -22 -9 4 -13 13 -10 22 8 19
23 19 31 0z"/>
<path d="M1470 296 c0 -8 5 -18 11 -22 8 -4 7 -9 -2 -15 -11 -7 -10 -9 4 -9
18 0 24 25 7 35 -6 4 -8 11 -5 16 4 5 1 9 -4 9 -6 0 -11 -6 -11 -14z"/>
<path d="M1575 290 c-9 -28 2 -40 36 -40 26 0 29 3 29 30 0 27 -3 30 -29 30
-21 0 -32 -6 -36 -20z m45 -10 c0 -11 -7 -20 -15 -20 -8 0 -15 9 -15 20 0 11
7 20 15 20 8 0 15 -9 15 -20z"/>
<path d="M1722 280 c0 -19 2 -27 5 -17 2 9 2 25 0 35 -3 9 -5 1 -5 -18z"/>
<path d="M1751 275 c1 -28 1 -28 8 -6 9 35 29 37 34 4 4 -27 4 -27 6 4 1 29
-2 33 -24 31 -21 -2 -25 -7 -24 -33z"/>
<path d="M1823 280 c2 -31 11 -38 22 -20 4 6 2 17 -4 24 -6 7 -8 16 -4 19 3 4
1 7 -5 7 -6 0 -10 -13 -9 -30z"/>
<path d="M1906 295 c-10 -26 5 -45 35 -45 25 0 29 4 29 28 0 23 -4 28 -29 30
-18 1 -31 -3 -35 -13z m44 -15 c0 -11 -7 -20 -15 -20 -15 0 -21 21 -8 33 12
13 23 7 23 -13z"/>
<path d="M1980 278 c0 -33 17 -38 22 -5 4 28 21 25 30 -5 5 -20 6 -19 7 9 1
29 -2 32 -29 31 -26 -1 -30 -5 -30 -30z"/>
<path d="M2104 295 c-10 -24 4 -45 28 -44 22 0 22 1 3 8 -19 8 -19 8 2 15 14
4 20 12 16 22 -7 19 -42 18 -49 -1z m36 -5 c0 -5 -7 -10 -16 -10 -8 0 -12 5
-9 10 3 6 10 10 16 10 5 0 9 -4 9 -10z"/>
<path d="M1510 249 c0 -5 5 -7 10 -4 6 3 10 8 10 11 0 2 -4 4 -10 4 -5 0 -10
-5 -10 -11z"/>
</g>
</svg>
